<svg width="22" height="22" viewBox="0 0 22 22" fill="none" xmlns="http://www.w3.org/2000/svg">
<g opacity="0.3">
<path d="M4.81266 3.20834C3.17552 3.20834 1.8335 4.55037 1.8335 6.18751V13.9792C1.8335 15.6163 3.17552 16.9583 4.81266 16.9583H5.50016V19.4792C5.50016 20.3803 6.61267 20.9362 7.3335 20.3958L11.9168 16.9583H17.1877C18.8248 16.9583 20.1668 15.6163 20.1668 13.9792V6.18751C20.1668 4.55037 18.8248 3.20834 17.1877 3.20834H4.81266ZM4.81266 4.58334H17.1877C18.0814 4.58334 18.7918 5.29373 18.7918 6.18751V13.9792C18.7918 14.873 18.0814 15.5833 17.1877 15.5833H11.6877C11.5388 15.5834 11.394 15.6318 11.275 15.7212L6.87516 19.0208V16.2708C6.87514 16.0885 6.80271 15.9137 6.67378 15.7847C6.54485 15.6558 6.36999 15.5834 6.18766 15.5833H4.81266C3.91888 15.5833 3.2085 14.873 3.2085 13.9792V6.18751C3.2085 5.29373 3.91888 4.58334 4.81266 4.58334Z" fill="black"/>
</g>
</svg>
