<svg width="22" height="22" viewBox="0 0 22 22" fill="none" xmlns="http://www.w3.org/2000/svg">
<g opacity="0.3">
<path d="M6.87492 3.20834C4.09854 3.20834 1.83325 5.47362 1.83325 8.25C1.83325 10.1274 3.24842 11.8951 4.97355 13.7079C6.69868 15.5208 8.82209 17.3568 10.5138 19.0486C10.6428 19.1775 10.8176 19.2499 10.9999 19.2499C11.1822 19.2499 11.3571 19.1775 11.486 19.0486C13.1777 17.3568 15.3012 15.5208 17.0263 13.7079C18.7514 11.8951 20.1666 10.1274 20.1666 8.25C20.1666 5.47362 17.9013 3.20834 15.1249 3.20834C13.5316 3.20834 12.1443 4.06381 10.9999 5.51701C9.85554 4.06381 8.46828 3.20834 6.87492 3.20834ZM6.87492 4.58334C8.21718 4.58334 9.33447 5.2976 10.4189 7.01286C10.481 7.11084 10.5667 7.19154 10.6683 7.24746C10.7699 7.30338 10.884 7.33271 10.9999 7.33271C11.1159 7.33271 11.2299 7.30338 11.3315 7.24746C11.4331 7.19154 11.5189 7.11084 11.5809 7.01286C12.6654 5.2976 13.7827 4.58334 15.1249 4.58334C17.1583 4.58334 18.7916 6.21663 18.7916 8.25C18.7916 9.35177 17.6859 11.0216 16.0308 12.7608C14.5216 14.3468 12.6455 16.0038 10.9999 17.6082C9.35436 16.0038 7.47827 14.3468 5.96899 12.7608C4.31391 11.0216 3.20825 9.35177 3.20825 8.25C3.20825 6.21663 4.84155 4.58334 6.87492 4.58334Z" fill="#003B55"/>
</g>
</svg>
