<svg width="22" height="22" viewBox="0 0 22 22" fill="none" xmlns="http://www.w3.org/2000/svg">
<g opacity="0.3">
<path d="M12.5942 3.20832C12.4135 3.21092 12.2412 3.2845 12.1144 3.41315C11.9876 3.5418 11.9165 3.71518 11.9165 3.89582V7.46402C10.6984 7.59989 8.69576 7.94899 6.67969 9.25438C4.39067 10.7365 2.35575 13.4614 2.30851 17.96C2.30782 17.9635 2.30561 17.9656 2.30493 17.969H2.30672C2.30623 18.0185 2.2915 18.0543 2.2915 18.1042C2.29168 18.2746 2.35519 18.4389 2.46968 18.5652C2.58418 18.6915 2.74151 18.7708 2.91115 18.7876C3.08078 18.8045 3.25062 18.7577 3.38772 18.6564C3.52481 18.5551 3.61938 18.4064 3.65308 18.2393C4.19727 15.5185 5.89363 14.3128 7.7736 13.6945C9.36033 13.1726 10.9139 13.1724 11.9165 13.2254V16.7292C11.9166 16.8651 11.9569 16.998 12.0325 17.111C12.108 17.224 12.2154 17.3121 12.341 17.3641C12.4666 17.4161 12.6048 17.4298 12.7381 17.4033C12.8714 17.3768 12.9939 17.3113 13.0901 17.2152L19.5068 10.7986C19.6356 10.6696 19.708 10.4948 19.708 10.3125C19.708 10.1302 19.6356 9.95534 19.5068 9.8264L13.0901 3.40974C13.0251 3.34471 12.9477 3.29338 12.8625 3.25879C12.7773 3.22419 12.6861 3.20703 12.5942 3.20832ZM13.2915 5.55549L18.0485 10.3125L13.2915 15.0695V12.5513C13.2916 12.3801 13.2277 12.215 13.1125 12.0884C12.9973 11.9617 12.8389 11.8826 12.6685 11.8665C11.7133 11.7771 9.52844 11.6699 7.34391 12.3884C6.32333 12.7241 5.30982 13.289 4.43994 14.0964C5.13618 12.3941 6.2083 11.1984 7.42717 10.4092C9.4319 9.11111 11.7356 8.79563 12.6541 8.72801C12.8273 8.71534 12.9893 8.63759 13.1075 8.51039C13.2258 8.38319 13.2915 8.21597 13.2915 8.0423V5.55549Z" fill="black"/>
</g>
</svg>
