<svg width="22" height="22" viewBox="0 0 22 22" fill="none" xmlns="http://www.w3.org/2000/svg">
<g opacity="0.3">
<path d="M12.5944 3.20833C12.4138 3.21094 12.2414 3.28452 12.1146 3.41317C11.9878 3.54182 11.9167 3.7152 11.9167 3.89583V7.46403C10.6986 7.5999 8.696 7.94901 6.67993 9.2544C4.39091 10.7365 2.356 13.4614 2.30876 17.96C2.30807 17.9635 2.30586 17.9656 2.30518 17.969H2.30697C2.30648 18.0185 2.29175 18.0543 2.29175 18.1042C2.29193 18.2746 2.35543 18.439 2.46993 18.5653C2.58443 18.6915 2.74176 18.7708 2.91139 18.7876C3.08103 18.8045 3.25087 18.7577 3.38796 18.6564C3.52506 18.5551 3.61963 18.4064 3.65332 18.2393C4.19752 15.5186 5.89387 14.3128 7.77384 13.6945C9.36057 13.1726 10.9141 13.1724 11.9167 13.2254V16.7292C11.9168 16.8651 11.9572 16.998 12.0327 17.111C12.1083 17.224 12.2156 17.3121 12.3412 17.3641C12.4668 17.4162 12.605 17.4298 12.7383 17.4033C12.8717 17.3768 12.9942 17.3113 13.0903 17.2153L19.507 10.7986C19.6359 10.6697 19.7083 10.4948 19.7083 10.3125C19.7083 10.1302 19.6359 9.95535 19.507 9.82642L13.0903 3.40975C13.0253 3.34473 12.948 3.2934 12.8628 3.2588C12.7776 3.22421 12.6863 3.20704 12.5944 3.20833ZM13.2917 5.5555L18.0487 10.3125L13.2917 15.0695V12.5514C13.2918 12.3801 13.228 12.215 13.1128 12.0884C12.9975 11.9617 12.8392 11.8826 12.6687 11.8665C11.7136 11.7771 9.52868 11.6699 7.34416 12.3884C6.32358 12.7241 5.31007 13.2891 4.44019 14.0964C5.13642 12.3941 6.20854 11.1984 7.42741 10.4092C9.43214 9.11113 11.7358 8.79564 12.6544 8.72803C12.8276 8.71535 12.9896 8.6376 13.1078 8.51041C13.226 8.38321 13.2917 8.21598 13.2917 8.04232V5.5555Z" fill="#003B55"/>
</g>
</svg>
