<svg width="22" height="22" viewBox="0 0 22 22" fill="none" xmlns="http://www.w3.org/2000/svg">
<g opacity="0.3">
<path d="M4.81242 3.20834C3.17528 3.20834 1.83325 4.55036 1.83325 6.1875V13.9792C1.83325 15.6163 3.17528 16.9583 4.81242 16.9583H5.49992V19.4792C5.49992 20.3803 6.61243 20.9362 7.33325 20.3958L11.9166 16.9583H17.1874C18.8246 16.9583 20.1666 15.6163 20.1666 13.9792V6.1875C20.1666 4.55036 18.8246 3.20834 17.1874 3.20834H4.81242ZM4.81242 4.58334H17.1874C18.0812 4.58334 18.7916 5.29372 18.7916 6.1875V13.9792C18.7916 14.8729 18.0812 15.5833 17.1874 15.5833H11.6874C11.5386 15.5834 11.3937 15.6318 11.2747 15.7212L6.87492 19.0208V16.2708C6.8749 16.0885 6.80246 15.9136 6.67353 15.7847C6.54461 15.6558 6.36975 15.5834 6.18742 15.5833H4.81242C3.91864 15.5833 3.20825 14.8729 3.20825 13.9792V6.1875C3.20825 5.29372 3.91864 4.58334 4.81242 4.58334Z" fill="#003B55"/>
</g>
</svg>
