<svg width="22" height="22" viewBox="0 0 22 22" fill="none" xmlns="http://www.w3.org/2000/svg">
<path d="M6.87492 3.20834C4.09854 3.20834 1.83325 5.47362 1.83325 8.25C1.83325 10.1274 3.24842 11.8951 4.97355 13.7079C6.69868 15.5208 8.82209 17.3568 10.5138 19.0486C10.6428 19.1775 10.8176 19.2499 10.9999 19.2499C11.1822 19.2499 11.3571 19.1775 11.486 19.0486C13.1777 17.3568 15.3012 15.5208 17.0263 13.7079C18.7514 11.8951 20.1666 10.1274 20.1666 8.25C20.1666 5.47362 17.9013 3.20834 15.1249 3.20834C13.5316 3.20834 12.1443 4.06381 10.9999 5.51701C9.85554 4.06381 8.46828 3.20834 6.87492 3.20834Z" fill="white"/>
</svg>
