<svg width="28" height="28" viewBox="0 0 28 28" fill="none" xmlns="http://www.w3.org/2000/svg">
<path d="M9.33333 2.91666C7.08853 2.91666 5.25 4.75519 5.25 6.99999C5.25 9.24479 7.08853 11.0833 9.33333 11.0833C11.5781 11.0833 13.4167 9.24479 13.4167 6.99999C13.4167 4.75519 11.5781 2.91666 9.33333 2.91666ZM18.6667 2.91666C16.4219 2.91666 14.5833 4.75519 14.5833 6.99999C14.5833 9.24479 16.4219 11.0833 18.6667 11.0833C20.9115 11.0833 22.75 9.24479 22.75 6.99999C22.75 4.75519 20.9115 2.91666 18.6667 2.91666ZM9.33333 4.66666C10.6324 4.66666 11.6667 5.70096 11.6667 6.99999C11.6667 8.29902 10.6324 9.33332 9.33333 9.33332C8.0343 9.33332 7 8.29902 7 6.99999C7 5.70096 8.0343 4.66666 9.33333 4.66666ZM18.6667 4.66666C19.9657 4.66666 21 5.70096 21 6.99999C21 8.29902 19.9657 9.33332 18.6667 9.33332C17.3676 9.33332 16.3333 8.29902 16.3333 6.99999C16.3333 5.70096 17.3676 4.66666 18.6667 4.66666ZM5.54167 12.25C4.41583 12.25 3.5 13.1658 3.5 14.2917V19.8333C3.5 23.0498 6.11683 25.6667 9.33333 25.6667C10.8162 25.6667 12.1677 25.1065 13.1979 24.1912C12.8269 23.7263 12.5138 23.2135 12.2694 22.6634C11.5262 23.4346 10.486 23.9167 9.33333 23.9167C7.08167 23.9167 5.25 22.085 5.25 19.8333V14.2917C5.25 14.1307 5.38067 14 5.54167 14H11.6815C11.7416 13.3391 12.0008 12.7347 12.4015 12.25H5.54167ZM14.875 12.25C13.7579 12.25 12.8333 13.1746 12.8333 14.2917V19.8333C12.8333 23.0445 15.4555 25.6667 18.6667 25.6667C21.8778 25.6667 24.5 23.0445 24.5 19.8333V14.2917C24.5 13.1746 23.5754 12.25 22.4583 12.25H14.875ZM14.875 14H22.4583C22.6304 14 22.75 14.1195 22.75 14.2917V19.8333C22.75 22.0985 20.9319 23.9167 18.6667 23.9167C16.4015 23.9167 14.5833 22.0985 14.5833 19.8333V14.2917C14.5833 14.1195 14.7029 14 14.875 14Z" fill="#FC3D48"/>
</svg>
