<svg width="95" height="21" viewBox="0 0 95 21" fill="none" xmlns="http://www.w3.org/2000/svg">
<path d="M0.643449 20H4.32751V6.63328H6.24487L2.10886 0.785344L9.77829 20H12.3804L20.0498 0.785344L15.9138 6.63328H17.8312V20H21.5152V0.237528H16.7356L11.1204 14.4397H11.0383L5.42315 0.237528H0.643449V20ZM31.1431 20.3013C32.1931 20.3013 33.1061 20.1643 33.8822 19.8904C34.6674 19.6165 35.3293 19.2513 35.868 18.7948C36.4159 18.3383 36.8495 17.8361 37.1691 17.2883C37.4887 16.7405 37.7032 16.1972 37.8128 15.6586L37.8539 15.5079H34.1835L34.1561 15.5901C34.0648 15.864 33.8913 16.1333 33.6357 16.3981C33.38 16.6629 33.0513 16.882 32.6496 17.0555C32.2479 17.229 31.7731 17.3157 31.2253 17.3157C30.5314 17.3157 29.9334 17.1651 29.4312 16.8638C28.929 16.5533 28.541 16.1105 28.2671 15.5353C28.0023 14.9601 27.8699 14.2662 27.8699 13.4536V11.906C27.8699 11.066 28.0023 10.3584 28.2671 9.78323C28.541 9.19889 28.9153 8.75607 29.3901 8.45477C29.874 8.15347 30.4264 8.00282 31.0473 8.00282C31.6681 8.00282 32.2114 8.14891 32.677 8.44108C33.1518 8.73325 33.5216 9.1715 33.7863 9.75584C34.0511 10.331 34.1835 11.0478 34.1835 11.906V13.4399L36.0872 11.0843H25.8841V13.6042H37.9771V12.3717C37.9771 10.8926 37.6895 9.60062 37.1143 8.49586C36.5482 7.3911 35.7402 6.53742 34.6902 5.93482C33.6494 5.32309 32.4122 5.01723 30.9788 5.01723C29.5453 5.01723 28.299 5.33222 27.2399 5.96221C26.1899 6.58307 25.3728 7.4687 24.7885 8.61912C24.2132 9.7604 23.9256 11.1117 23.9256 12.673V12.6867C23.9256 14.2479 24.2132 15.5992 24.7885 16.7405C25.3728 17.8818 26.2036 18.7628 27.281 19.3837C28.3584 19.9954 29.6458 20.3013 31.1431 20.3013ZM40.0451 20H44.0442V11.5636C44.0442 10.9154 44.1629 10.3493 44.4003 9.8654C44.6468 9.38149 44.9892 9.00715 45.4274 8.74238C45.8657 8.46847 46.3815 8.33151 46.975 8.33151C47.8698 8.33151 48.5409 8.59629 48.9882 9.12585C49.4447 9.64627 49.673 10.3858 49.673 11.3445V20H53.6721V10.5228C53.6721 8.79716 53.2292 7.45044 52.3436 6.48263C51.4671 5.50569 50.2208 5.01723 48.6048 5.01723C47.5 5.01723 46.5733 5.25918 45.8246 5.74308C45.0759 6.22699 44.5098 6.88893 44.1264 7.72892H44.0442V5.31852H40.0451V20ZM62.04 20.3013C62.4599 20.3013 62.8297 20.283 63.1493 20.2465C63.478 20.2191 63.7519 20.1872 63.971 20.1506V17.2198C63.8523 17.2381 63.7245 17.2564 63.5875 17.2746C63.4506 17.2837 63.2908 17.2883 63.1082 17.2883C62.5056 17.2883 62.0491 17.1559 61.7387 16.8911C61.4374 16.6172 61.2867 16.1379 61.2867 15.4531V8.33151H63.971V5.31852H61.2867V1.73033H57.2466V5.31852H55.2059V8.33151H57.2466V15.8914C57.2466 17.4618 57.6392 18.5894 58.4244 19.2741C59.2096 19.9589 60.4148 20.3013 62.04 20.3013ZM71.1748 20.3013C72.2887 20.3013 73.22 20.0593 73.9687 19.5754C74.7173 19.0915 75.2789 18.425 75.6532 17.5759H75.7354V20H79.7344V5.31852H75.7354V13.7549C75.7354 14.3849 75.6121 14.9464 75.3656 15.4394C75.1282 15.9233 74.7904 16.3022 74.3521 16.5761C73.923 16.8501 73.4071 16.987 72.8045 16.987C71.9098 16.987 71.2341 16.7222 70.7776 16.1927C70.3302 15.6631 70.1066 14.919 70.1066 13.9603V5.31852H66.1075V14.7957C66.1075 15.937 66.3038 16.9185 66.6964 17.7403C67.0981 18.562 67.6733 19.1965 68.422 19.6439C69.1798 20.0822 70.0974 20.3013 71.1748 20.3013ZM88.3762 20.3013C89.6362 20.3013 90.7455 20.105 91.7042 19.7124C92.672 19.3107 93.4298 18.7537 93.9776 18.0416C94.5255 17.3294 94.7994 16.494 94.7994 15.5353V15.5216C94.7994 14.4442 94.4615 13.586 93.7859 12.9469C93.1194 12.3077 92.0146 11.8284 90.4716 11.5088L87.9791 10.9747C87.2395 10.8195 86.7236 10.6141 86.4315 10.3584C86.1393 10.1028 85.9932 9.78779 85.9932 9.41345V9.39976C85.9932 9.0802 86.0845 8.80629 86.2671 8.57803C86.4497 8.34064 86.7099 8.15804 87.0478 8.03021C87.3856 7.90239 87.7828 7.83848 88.2393 7.83848C88.9788 7.83848 89.5586 8.01652 89.9786 8.3726C90.4077 8.71955 90.6542 9.1578 90.7181 9.68736L90.7318 9.79692H94.4159V9.65997C94.3885 8.80172 94.1283 8.02108 93.6353 7.31805C93.1514 6.61502 92.4529 6.05808 91.5399 5.64721C90.636 5.22722 89.5358 5.01723 88.2393 5.01723C86.9976 5.01723 85.911 5.20896 84.9798 5.59243C84.0576 5.96677 83.3454 6.49633 82.8433 7.1811C82.3411 7.86587 82.09 8.67846 82.09 9.61888V9.63258C82.09 10.7282 82.4461 11.6321 83.1583 12.3443C83.8796 13.0473 84.9524 13.5495 86.3767 13.8508L88.8693 14.3712C89.5905 14.5355 90.0927 14.7364 90.3758 14.9738C90.6588 15.2112 90.8003 15.5262 90.8003 15.9188V15.9325C90.8003 16.252 90.6999 16.5259 90.499 16.7542C90.3073 16.9824 90.0334 17.1605 89.6773 17.2883C89.3212 17.407 88.8875 17.4663 88.3762 17.4663C87.5819 17.4663 86.961 17.3066 86.5136 16.987C86.0663 16.6675 85.7787 16.2201 85.6508 15.6449L85.6234 15.5216H81.7203L81.734 15.6449C81.8435 16.567 82.1631 17.3796 82.6926 18.0826C83.2313 18.7765 83.9754 19.3198 84.925 19.7124C85.8745 20.105 87.0249 20.3013 88.3762 20.3013Z" fill="#FC3D48"/>
</svg>
