<svg width="28" height="28" viewBox="0 0 28 28" fill="none" xmlns="http://www.w3.org/2000/svg">
<path d="M13.9997 2.33218C7.56684 2.33218 2.33301 7.56602 2.33301 13.9989C2.33301 15.9095 2.83625 17.6953 3.65234 19.2876L2.3877 23.8153C2.09314 24.8672 3.1333 25.9073 4.18555 25.6131L8.71663 24.3485C10.3076 25.1628 12.0909 25.6655 13.9997 25.6655C20.4325 25.6655 25.6663 20.4317 25.6663 13.9989C25.6663 7.56602 20.4325 2.33218 13.9997 2.33218ZM13.9997 4.08218C19.4867 4.08218 23.9163 8.51185 23.9163 13.9989C23.9163 19.4859 19.4867 23.9155 13.9997 23.9155C12.2488 23.9155 10.6109 23.4602 9.18262 22.6645C8.9813 22.5523 8.74384 22.5241 8.52181 22.5859L4.21289 23.7879L5.41602 19.4813C5.47817 19.2589 5.44991 19.021 5.3374 18.8193C4.54014 17.39 4.08301 15.7515 4.08301 13.9989C4.08301 8.51185 8.51267 4.08218 13.9997 4.08218ZM9.04134 11.0822C8.92539 11.0805 8.81028 11.102 8.70268 11.1452C8.59508 11.1884 8.49715 11.2526 8.41458 11.334C8.332 11.4155 8.26643 11.5125 8.22168 11.6194C8.17693 11.7264 8.15388 11.8412 8.15388 11.9572C8.15388 12.0731 8.17693 12.1879 8.22168 12.2949C8.26643 12.4019 8.332 12.4989 8.41458 12.5803C8.49715 12.6617 8.59508 12.7259 8.70268 12.7692C8.81028 12.8124 8.92539 12.8338 9.04134 12.8322H18.958C19.074 12.8338 19.1891 12.8124 19.2967 12.7692C19.4043 12.7259 19.5022 12.6617 19.5848 12.5803C19.6673 12.4989 19.7329 12.4019 19.7777 12.2949C19.8224 12.1879 19.8455 12.0731 19.8455 11.9572C19.8455 11.8412 19.8224 11.7264 19.7777 11.6194C19.7329 11.5125 19.6673 11.4155 19.5848 11.334C19.5022 11.2526 19.4043 11.1884 19.2967 11.1452C19.1891 11.102 19.074 11.0805 18.958 11.0822H9.04134ZM9.04134 15.1655C8.92539 15.1639 8.81028 15.1853 8.70268 15.2285C8.59508 15.2718 8.49715 15.336 8.41458 15.4174C8.332 15.4988 8.26643 15.5958 8.22168 15.7028C8.17693 15.8098 8.15388 15.9246 8.15388 16.0405C8.15388 16.1565 8.17693 16.2713 8.22168 16.3783C8.26643 16.4852 8.332 16.5822 8.41458 16.6637C8.49715 16.7451 8.59508 16.8093 8.70268 16.8525C8.81028 16.8957 8.92539 16.9172 9.04134 16.9155H16.6247C16.7406 16.9172 16.8557 16.8957 16.9633 16.8525C17.0709 16.8093 17.1689 16.7451 17.2514 16.6637C17.334 16.5822 17.3996 16.4852 17.4443 16.3783C17.4891 16.2713 17.5121 16.1565 17.5121 16.0405C17.5121 15.9246 17.4891 15.8098 17.4443 15.7028C17.3996 15.5958 17.334 15.4988 17.2514 15.4174C17.1689 15.336 17.0709 15.2718 16.9633 15.2285C16.8557 15.1853 16.7406 15.1639 16.6247 15.1655H9.04134Z" fill="#FC3D48"/>
</svg>
