<svg width="40" height="40" viewBox="0 0 40 40" fill="none" xmlns="http://www.w3.org/2000/svg">
<path d="M30.2387 12.0005C29.9141 12.01 29.6059 12.1454 29.3793 12.3781L16.2502 25.4797L11.1521 20.3816C11.0369 20.2616 10.8989 20.1658 10.7463 20.0998C10.5936 20.0339 10.4293 19.999 10.263 19.9973C10.0967 19.9956 9.93175 20.0271 9.77778 20.09C9.62381 20.1529 9.48393 20.2458 9.36633 20.3634C9.24874 20.481 9.15578 20.6209 9.09292 20.7748C9.03006 20.9288 8.99855 21.0938 9.00024 21.2601C9.00193 21.4264 9.03679 21.5907 9.10277 21.7433C9.16875 21.896 9.26452 22.034 9.38449 22.1491L15.3664 28.1311C15.6008 28.3654 15.9187 28.497 16.2502 28.497C16.5816 28.497 16.8995 28.3654 17.134 28.1311L31.1469 14.1457C31.3273 13.9701 31.4504 13.7441 31.5001 13.4973C31.5499 13.2506 31.524 12.9945 31.4259 12.7627C31.3278 12.5309 31.1619 12.3342 30.9501 12.1982C30.7383 12.0622 30.4903 11.9933 30.2387 12.0005Z" fill="white"/>
</svg>
