<svg width="32" height="32" viewBox="0 0 32 32" fill="none" xmlns="http://www.w3.org/2000/svg">
<path d="M16.0002 2.66667C13.6614 2.66667 11.7138 4.41429 11.387 6.66667H4.33358C4.20107 6.6648 4.0695 6.68928 3.94654 6.73869C3.82357 6.78811 3.71165 6.86147 3.61728 6.95451C3.52291 7.04756 3.44797 7.15843 3.39682 7.28069C3.34568 7.40294 3.31934 7.53415 3.31934 7.66667C3.31934 7.7992 3.34568 7.9304 3.39682 8.05266C3.44797 8.17491 3.52291 8.28579 3.61728 8.37883C3.71165 8.47188 3.82357 8.54524 3.94654 8.59465C4.0695 8.64406 4.20107 8.66855 4.33358 8.66667H5.75806L7.43775 26.0195C7.62041 27.9082 9.19079 29.3333 11.0888 29.3333H20.9117C22.8097 29.3333 24.3794 27.9082 24.5627 26.0195L26.2424 8.66667H27.6669C27.7994 8.66855 27.931 8.64406 28.054 8.59465C28.1769 8.54524 28.2888 8.47188 28.3832 8.37883C28.4776 8.28579 28.5525 8.17491 28.6037 8.05266C28.6548 7.9304 28.6812 7.7992 28.6812 7.66667C28.6812 7.53415 28.6548 7.40294 28.6037 7.28069C28.5525 7.15843 28.4776 7.04756 28.3832 6.95451C28.2888 6.86147 28.1769 6.78811 28.054 6.73869C27.931 6.68928 27.7994 6.6648 27.6669 6.66667H20.6135C20.2866 4.41429 18.3391 2.66667 16.0002 2.66667ZM16.0002 4.66667C17.253 4.66667 18.2808 5.51211 18.5745 6.66667H13.426C13.7197 5.51211 14.7475 4.66667 16.0002 4.66667ZM13.0002 12C13.5522 12 14.0002 12.4473 14.0002 13V23C14.0002 23.5527 13.5522 24 13.0002 24C12.4482 24 12.0002 23.5527 12.0002 23V13C12.0002 12.4473 12.4482 12 13.0002 12ZM19.0002 12C19.5522 12 20.0002 12.4473 20.0002 13V23C20.0002 23.5527 19.5522 24 19.0002 24C18.4482 24 18.0002 23.5527 18.0002 23V13C18.0002 12.4473 18.4482 12 19.0002 12Z" fill="red"/>
</svg>
