<svg width="22" height="22" viewBox="0 0 22 22" fill="none" xmlns="http://www.w3.org/2000/svg">
<g opacity="0.3">
<path d="M6.87516 3.20834C4.09878 3.20834 1.8335 5.47363 1.8335 8.25001C1.8335 10.1274 3.24867 11.8951 4.97379 13.7079C6.69892 15.5208 8.82234 17.3569 10.5141 19.0486C10.643 19.1775 10.8179 19.2499 11.0002 19.2499C11.1825 19.2499 11.3573 19.1775 11.4862 19.0486C13.178 17.3569 15.3014 15.5208 17.0265 13.7079C18.7517 11.8951 20.1668 10.1274 20.1668 8.25001C20.1668 5.47363 17.9015 3.20834 15.1252 3.20834C13.5318 3.20834 12.1445 4.06382 11.0002 5.51702C9.85579 4.06382 8.46853 3.20834 6.87516 3.20834ZM6.87516 4.58334C8.21742 4.58334 9.33472 5.29761 10.4192 7.01287C10.4812 7.11084 10.567 7.19155 10.6686 7.24747C10.7701 7.30339 10.8842 7.33271 11.0002 7.33271C11.1161 7.33271 11.2302 7.30339 11.3318 7.24747C11.4333 7.19155 11.5191 7.11084 11.5811 7.01287C12.6656 5.29761 13.7829 4.58334 15.1252 4.58334C17.1585 4.58334 18.7918 6.21664 18.7918 8.25001C18.7918 9.35177 17.6862 11.0216 16.0311 12.7608C14.5218 14.3469 12.6457 16.0038 11.0002 17.6082C9.3546 16.0038 7.47852 14.3469 5.96924 12.7608C4.31416 11.0216 3.2085 9.35177 3.2085 8.25001C3.2085 6.21664 4.84179 4.58334 6.87516 4.58334Z" fill="black"/>
</g>
</svg>
