<svg width="279" height="129" viewBox="0 0 279 129" fill="none" xmlns="http://www.w3.org/2000/svg">
<path d="M2.64345 26H6.32751V12.6333H8.24487L4.10886 6.78534L11.7783 26H14.3804L22.0498 6.78534L17.9138 12.6333H19.8312V26H23.5152V6.23753H18.7356L13.1204 20.4397H13.0383L7.42315 6.23753H2.64345V26ZM33.1431 26.3013C34.1931 26.3013 35.1061 26.1643 35.8822 25.8904C36.6674 25.6165 37.3293 25.2513 37.868 24.7948C38.4159 24.3383 38.8495 23.8361 39.1691 23.2883C39.4887 22.7405 39.7032 22.1972 39.8128 21.6586L39.8539 21.5079H36.1835L36.1561 21.5901C36.0648 21.864 35.8913 22.1333 35.6357 22.3981C35.38 22.6629 35.0513 22.882 34.6496 23.0555C34.2479 23.229 33.7731 23.3157 33.2253 23.3157C32.5314 23.3157 31.9334 23.1651 31.4312 22.8638C30.929 22.5533 30.541 22.1105 30.2671 21.5353C30.0023 20.9601 29.8699 20.2662 29.8699 19.4536V17.906C29.8699 17.066 30.0023 16.3584 30.2671 15.7832C30.541 15.1989 30.9153 14.7561 31.3901 14.4548C31.874 14.1535 32.4264 14.0028 33.0473 14.0028C33.6681 14.0028 34.2114 14.1489 34.677 14.4411C35.1518 14.7332 35.5216 15.1715 35.7863 15.7558C36.0511 16.331 36.1835 17.0478 36.1835 17.906V19.4399L38.0872 17.0843H27.8841V19.6042H39.9771V18.3717C39.9771 16.8926 39.6895 15.6006 39.1143 14.4959C38.5482 13.3911 37.7402 12.5374 36.6902 11.9348C35.6494 11.3231 34.4122 11.0172 32.9788 11.0172C31.5453 11.0172 30.299 11.3322 29.2399 11.9622C28.1899 12.5831 27.3728 13.4687 26.7885 14.6191C26.2132 15.7604 25.9256 17.1117 25.9256 18.673V18.6867C25.9256 20.2479 26.2132 21.5992 26.7885 22.7405C27.3728 23.8818 28.2036 24.7628 29.281 25.3837C30.3584 25.9954 31.6458 26.3013 33.1431 26.3013ZM42.0451 26H46.0442V17.5636C46.0442 16.9154 46.1629 16.3493 46.4003 15.8654C46.6468 15.3815 46.9892 15.0072 47.4274 14.7424C47.8657 14.4685 48.3815 14.3315 48.975 14.3315C49.8698 14.3315 50.5409 14.5963 50.9882 15.1258C51.4447 15.6463 51.673 16.3858 51.673 17.3445V26H55.6721V16.5228C55.6721 14.7972 55.2292 13.4504 54.3436 12.4826C53.4671 11.5057 52.2208 11.0172 50.6048 11.0172C49.5 11.0172 48.5733 11.2592 47.8246 11.7431C47.0759 12.227 46.5098 12.8889 46.1264 13.7289H46.0442V11.3185H42.0451V26ZM64.04 26.3013C64.4599 26.3013 64.8297 26.283 65.1493 26.2465C65.478 26.2191 65.7519 26.1872 65.971 26.1506V23.2198C65.8523 23.2381 65.7245 23.2564 65.5875 23.2746C65.4506 23.2837 65.2908 23.2883 65.1082 23.2883C64.5056 23.2883 64.0491 23.1559 63.7387 22.8911C63.4374 22.6172 63.2867 22.1379 63.2867 21.4531V14.3315H65.971V11.3185H63.2867V7.73033H59.2466V11.3185H57.2059V14.3315H59.2466V21.8914C59.2466 23.4618 59.6392 24.5894 60.4244 25.2741C61.2096 25.9589 62.4148 26.3013 64.04 26.3013ZM73.1748 26.3013C74.2887 26.3013 75.22 26.0593 75.9687 25.5754C76.7173 25.0915 77.2789 24.425 77.6532 23.5759H77.7354V26H81.7344V11.3185H77.7354V19.7549C77.7354 20.3849 77.6121 20.9464 77.3656 21.4394C77.1282 21.9233 76.7904 22.3022 76.3521 22.5761C75.923 22.8501 75.4071 22.987 74.8045 22.987C73.9098 22.987 73.2341 22.7222 72.7776 22.1927C72.3302 21.6631 72.1066 20.919 72.1066 19.9603V11.3185H68.1075V20.7957C68.1075 21.937 68.3038 22.9185 68.6964 23.7403C69.0981 24.562 69.6733 25.1965 70.422 25.6439C71.1798 26.0822 72.0974 26.3013 73.1748 26.3013ZM90.3762 26.3013C91.6362 26.3013 92.7455 26.105 93.7042 25.7124C94.672 25.3107 95.4298 24.7537 95.9776 24.0416C96.5255 23.3294 96.7994 22.494 96.7994 21.5353V21.5216C96.7994 20.4442 96.4615 19.586 95.7859 18.9469C95.1194 18.3077 94.0146 17.8284 92.4716 17.5088L89.9791 16.9747C89.2395 16.8195 88.7236 16.6141 88.4315 16.3584C88.1393 16.1028 87.9932 15.7878 87.9932 15.4135V15.3998C87.9932 15.0802 88.0845 14.8063 88.2671 14.578C88.4497 14.3406 88.7099 14.158 89.0478 14.0302C89.3856 13.9024 89.7828 13.8385 90.2393 13.8385C90.9788 13.8385 91.5586 14.0165 91.9786 14.3726C92.4077 14.7195 92.6542 15.1578 92.7181 15.6874L92.7318 15.7969H96.4159V15.66C96.3885 14.8017 96.1283 14.0211 95.6353 13.3181C95.1514 12.615 94.4529 12.0581 93.5399 11.6472C92.636 11.2272 91.5358 11.0172 90.2393 11.0172C88.9976 11.0172 87.911 11.209 86.9798 11.5924C86.0576 11.9668 85.3454 12.4963 84.8433 13.1811C84.3411 13.8659 84.09 14.6785 84.09 15.6189V15.6326C84.09 16.7282 84.4461 17.6321 85.1583 18.3443C85.8796 19.0473 86.9524 19.5495 88.3767 19.8508L90.8693 20.3712C91.5905 20.5355 92.0927 20.7364 92.3758 20.9738C92.6588 21.2112 92.8003 21.5262 92.8003 21.9188V21.9325C92.8003 22.252 92.6999 22.5259 92.499 22.7542C92.3073 22.9824 92.0334 23.1605 91.6773 23.2883C91.3212 23.407 90.8875 23.4663 90.3762 23.4663C89.5819 23.4663 88.961 23.3066 88.5136 22.987C88.0663 22.6675 87.7787 22.2201 87.6508 21.6449L87.6234 21.5216H83.7203L83.734 21.6449C83.8435 22.567 84.1631 23.3796 84.6926 24.0826C85.2313 24.7765 85.9754 25.3198 86.925 25.7124C87.8745 26.105 89.0249 26.3013 90.3762 26.3013Z" fill="#FC3D48"/>
<path d="M32.9855 9.93373L32.8416 9.82023C32.6155 9.64201 32.3117 9.44529 31.9611 9.21747C30.5684 8.3129 28.4639 6.94595 28.4639 4.76607C28.4639 3.42686 29.6164 2.33734 31.0329 2.33734C31.7906 2.33734 32.4998 2.65091 32.9855 3.18895C33.4713 2.65091 34.1813 2.33734 34.9381 2.33734C36.3547 2.33734 37.5072 3.42686 37.5072 4.76607C37.5072 6.94595 35.4027 8.3129 34.01 9.21747C33.6585 9.44529 33.3556 9.64201 33.1295 9.82023L32.9855 9.93373Z" fill="#FC3D48"/>
<path d="M2.72 60H6.368V52.32H10.72C17.088 52.32 20.288 49.856 20.288 44.96C20.288 40.064 17.088 37.6 10.72 37.6H2.72V60ZM15.072 48.096C14.048 48.704 12.672 48.992 10.912 48.992H6.368V40.928H10.912C12.672 40.928 14.048 41.216 15.072 41.792C16.064 42.4 16.576 43.456 16.576 44.96C16.576 46.464 16.064 47.52 15.072 48.096ZM21.684 52.32C21.684 54.912 22.516 56.896 24.18 58.304C25.812 59.712 27.892 60.416 30.388 60.416C32.596 60.416 34.42 60.064 35.892 59.36V56.416C34.388 57.152 32.788 57.504 31.028 57.504C27.956 57.504 25.492 56.192 25.14 53.6H36.692C37.716 49.184 35.54 44.192 29.46 44.224C27.636 44.224 25.78 44.896 24.244 46.144C22.708 47.424 21.684 49.664 21.684 52.32ZM25.108 51.04C25.236 48.576 27.188 47.072 29.62 47.072C31.124 47.072 32.18 47.52 32.852 48.384C33.492 49.28 33.748 50.176 33.62 51.04H25.108ZM43.5368 47.648H51.5688V44.64H40.1128V60H43.5368V47.648ZM65.4058 49.952V60H68.8298V44.64H65.8858L57.6618 54.688V44.64H54.2378V60H57.1818L65.4058 49.952ZM72.1528 52.448C72.1528 55.008 72.9848 56.96 74.6168 58.336C76.2488 59.712 78.2008 60.416 80.4408 60.416C82.3608 60.416 84.0568 60.064 85.5288 59.36V56.192C84.1528 56.992 82.6808 57.376 81.0488 57.376C79.5448 57.376 78.2968 56.928 77.2408 56.064C76.1848 55.2 75.6408 53.952 75.6408 52.32C75.6408 50.624 76.1848 49.376 77.2408 48.512C78.2968 47.68 79.6088 47.264 81.1128 47.264C82.7448 47.264 84.1848 47.68 85.3688 48.544V45.408C84.0568 44.608 82.4568 44.224 80.6328 44.224C78.3608 44.224 76.3768 44.928 74.6808 46.336C72.9848 47.744 72.1528 49.792 72.1528 52.448ZM96.0925 47.648H101.373V44.64H87.3565V47.648H92.6685V60H96.0925V47.648ZM107.09 44.64H104.05V67.04H107.474V58.016C108.85 59.616 110.706 60.416 113.01 60.416C115.282 60.416 117.106 59.616 118.514 58.048C119.922 56.48 120.626 54.592 120.626 52.32C120.626 50.048 119.922 48.128 118.514 46.56C117.106 44.992 115.282 44.224 113.01 44.224C110.61 44.224 108.658 45.152 107.09 47.04V44.64ZM115.794 55.968C114.898 56.928 113.746 57.408 112.37 57.408C110.098 57.408 108.274 56 107.474 54.176V50.432C108.274 48.64 110.098 47.232 112.37 47.232C113.746 47.232 114.898 47.712 115.794 48.64C116.69 49.6 117.138 50.816 117.138 52.32C117.138 53.824 116.69 55.04 115.794 55.968ZM137.045 50.944C137.045 46.432 134.421 44.224 129.941 44.224C128.021 44.224 126.069 44.576 124.053 45.248V48.384C125.845 47.584 127.701 47.2 129.589 47.2C132.149 47.2 133.621 48.512 133.621 50.464V51.008C132.181 50.72 130.869 50.56 129.621 50.56C127.733 50.56 126.133 50.976 124.789 51.776C123.445 52.608 122.773 53.92 122.773 55.712C122.773 57.216 123.285 58.368 124.341 59.168C125.397 60 126.645 60.416 128.149 60.416C130.357 60.416 132.309 59.744 133.941 58.432C134.453 59.616 135.477 60.224 137.013 60.224C137.812 60.224 138.549 60.096 139.189 59.84V57.376C138.773 57.504 138.421 57.568 138.165 57.568C137.429 57.568 137.045 57.184 137.045 56.448V50.944ZM130.293 52.96C131.285 52.96 132.373 53.088 133.621 53.344V55.936C132.405 57.152 130.933 57.76 129.173 57.76C127.541 57.76 126.293 56.928 126.293 55.488C126.293 53.728 128.021 52.96 130.293 52.96ZM158.249 57.056H155.945V44.64H152.521V56.992H145.193V44.64H141.769V60H155.017V64.128H158.249V57.056ZM172.562 49.952V60H175.986V44.64H173.042L164.818 54.688V44.64H161.394V60H164.338L172.562 49.952ZM186.637 54.976H190.125V60H193.549V44.64H185.613C181.933 44.64 179.693 46.88 179.693 49.824C179.693 52 180.941 53.824 183.117 54.592L178.893 60H182.829L186.637 54.976ZM183.981 48.096C184.525 47.68 185.261 47.488 186.189 47.488H190.125V52.224H186.189C185.261 52.224 184.525 52 183.981 51.584C183.437 51.168 183.181 50.592 183.181 49.856C183.181 49.12 183.437 48.512 183.981 48.096Z" fill="black"/>
<path opacity="0.4" d="M1.656 96H6.966C8.802 96 11.61 95.406 11.61 92.544C11.61 91.626 11.358 90.924 10.854 90.402C10.35 89.898 9.756 89.556 9.09 89.376C10.188 89.034 11.106 88.08 11.106 86.586C11.106 84.516 9.468 83.4 6.822 83.4H1.656V96ZM10.08 92.382C10.08 93.174 9.756 93.75 9.342 94.038C9.144 94.2 8.874 94.308 8.532 94.38C7.866 94.542 7.434 94.56 6.66 94.56H3.168V90.204H7.074C9.072 90.204 10.08 90.924 10.08 92.382ZM9.576 86.802C9.576 88.152 8.55 88.764 7.11 88.764H3.168V84.84H6.696C8.586 84.84 9.576 85.38 9.576 86.802ZM18.5674 96C20.3854 96 21.3574 95.064 21.3574 93.606C21.3574 92.598 20.7274 91.878 19.9354 91.608C20.6014 91.32 21.0874 90.564 21.0874 89.7C21.0874 88.206 19.9894 87.36 18.4234 87.36H13.6894V96H18.5674ZM18.4234 92.256C19.4134 92.256 19.9174 92.67 19.9174 93.516C19.9174 94.326 19.3954 94.74 18.3694 94.74H15.1294V92.256H18.4234ZM18.2794 88.62C19.0174 88.62 19.6294 88.962 19.6294 89.844C19.6294 90.618 19.1794 91.014 18.2794 91.014H15.1294V88.62H18.2794ZM22.9568 91.68C22.9568 93.138 23.4067 94.272 24.3248 95.046C25.2428 95.82 26.3768 96.216 27.7448 96.216C28.9868 96.216 29.9948 96 30.8048 95.586V94.182C29.9588 94.65 29.0228 94.884 27.9608 94.884C26.0708 94.884 24.5588 94.02 24.3968 92.31H31.2728C31.9208 89.88 30.4808 87.126 27.2588 87.144C26.1248 87.144 25.1348 87.54 24.2708 88.35C23.3888 89.16 22.9568 90.258 22.9568 91.68ZM24.3968 91.05C24.4868 89.448 25.7828 88.476 27.3488 88.476C29.5448 88.476 30.1208 90.132 29.9948 91.05H24.3968ZM33.7763 96H41.3003V98.34H42.7043V94.704H41.4443V87.36H35.0003C35.0363 90.456 34.5503 92.904 33.5243 94.704H32.3723V98.34H33.7763V96ZM40.0043 88.656V94.704H35.0903C35.9003 93.03 36.3323 91.014 36.3863 88.656H40.0043ZM51.1429 89.682V96H52.5829V87.36H51.3589L46.0669 93.678V87.36H44.6269V96H45.8509L51.1429 89.682ZM58.8441 88.692H62.0121V87.36H54.2181V88.692H57.4041V96H58.8441V88.692ZM62.7712 91.68C62.7712 93.138 63.2212 94.272 64.1392 95.046C65.0572 95.82 66.1912 96.216 67.5592 96.216C68.8012 96.216 69.8092 96 70.6192 95.586V94.182C69.7732 94.65 68.8372 94.884 67.7752 94.884C65.8852 94.884 64.3732 94.02 64.2112 92.31H71.0872C71.7352 89.88 70.2952 87.126 67.0732 87.144C65.9392 87.144 64.9492 87.54 64.0852 88.35C63.2032 89.16 62.7712 90.258 62.7712 91.68ZM64.2112 91.05C64.3012 89.448 65.5972 88.476 67.1632 88.476C69.3592 88.476 69.9352 90.132 69.8092 91.05H64.2112ZM79.1138 88.692H84.1178V96H85.5578V87.36H77.6738V96H79.1138V88.692ZM88.9947 94.992C89.9127 95.802 90.9927 96.216 92.2347 96.216C93.4947 96.216 94.5747 95.802 95.4927 94.992C96.3927 94.182 96.8427 93.084 96.8427 91.68C96.8427 90.276 96.3927 89.16 95.4927 88.35C94.5747 87.54 93.4947 87.144 92.2347 87.144C90.9927 87.144 89.9127 87.54 88.9947 88.35C88.0767 89.16 87.6267 90.276 87.6267 91.68C87.6267 93.084 88.0767 94.182 88.9947 94.992ZM94.5027 93.984C93.9087 94.56 93.1527 94.848 92.2347 94.848C91.3167 94.848 90.5607 94.56 89.9667 93.984C89.3727 93.426 89.0667 92.652 89.0667 91.68C89.0667 90.708 89.3727 89.934 89.9667 89.358C90.5607 88.8 91.3167 88.512 92.2347 88.512C93.1527 88.512 93.9087 88.8 94.5027 89.358C95.0967 89.934 95.4027 90.708 95.4027 91.68C95.4027 92.652 95.0967 93.426 94.5027 93.984ZM105.658 87.36H104.218V91.734C103.588 91.986 102.886 92.112 102.076 92.112C100.546 92.112 99.7542 91.626 99.7542 90.24V87.36H98.3142V90.348C98.3142 92.418 99.5742 93.444 101.644 93.444C102.58 93.444 103.444 93.3 104.218 92.994V96H105.658V87.36ZM111.93 88.692H115.098V87.36H107.304V88.692H110.49V96H111.93V88.692ZM117.11 87.36H115.58L119.684 96.018L119.36 96.81C118.802 98.214 118.046 98.916 117.128 98.916C116.876 98.916 116.624 98.88 116.372 98.808V100.05C116.678 100.14 116.984 100.176 117.308 100.176C118.658 100.176 119.738 99.222 120.566 97.296L124.814 87.36H123.284L120.368 94.362L117.11 87.36ZM137.416 89.682V96H138.856V87.36H137.632L132.34 93.678V87.36H130.9V96H132.124L137.416 89.682ZM148.088 88.692V96H149.528V87.36H143.174C143.012 92.382 142.418 94.92 140.978 94.92C140.78 94.92 140.6 94.884 140.402 94.812V95.946C140.744 96.072 141.104 96.144 141.446 96.144C142.31 96.144 142.994 95.622 143.444 94.812C143.66 94.398 143.84 93.876 144.002 93.21C144.308 91.914 144.452 90.582 144.578 88.692H148.088ZM158.703 89.682V96H160.143V87.36H158.919L153.627 93.678V87.36H152.187V96H153.411L158.703 89.682ZM170.887 88.692H174.055V87.36H166.261V88.692H169.447V96H170.887V88.692ZM174.814 91.68C174.814 93.138 175.264 94.272 176.182 95.046C177.1 95.82 178.234 96.216 179.602 96.216C180.844 96.216 181.852 96 182.662 95.586V94.182C181.816 94.65 180.88 94.884 179.818 94.884C177.928 94.884 176.416 94.02 176.254 92.31H183.13C183.778 89.88 182.338 87.126 179.116 87.144C177.982 87.144 176.992 87.54 176.128 88.35C175.246 89.16 174.814 90.258 174.814 91.68ZM176.254 91.05C176.344 89.448 177.64 88.476 179.206 88.476C181.402 88.476 181.978 90.132 181.852 91.05H176.254ZM191.804 88.692V96H193.244V87.36H186.89C186.728 92.382 186.134 94.92 184.694 94.92C184.496 94.92 184.316 94.884 184.118 94.812V95.946C184.46 96.072 184.82 96.144 185.162 96.144C186.026 96.144 186.71 95.622 187.16 94.812C187.376 94.398 187.556 93.876 187.718 93.21C188.024 91.914 188.168 90.582 188.294 88.692H191.804ZM195.31 91.68C195.31 93.138 195.76 94.272 196.678 95.046C197.596 95.82 198.73 96.216 200.098 96.216C201.34 96.216 202.348 96 203.158 95.586V94.182C202.312 94.65 201.376 94.884 200.314 94.884C198.424 94.884 196.912 94.02 196.75 92.31H203.626C204.274 89.88 202.834 87.126 199.612 87.144C198.478 87.144 197.488 87.54 196.624 88.35C195.742 89.16 195.31 90.258 195.31 91.68ZM196.75 91.05C196.84 89.448 198.136 88.476 199.702 88.476C201.898 88.476 202.474 90.132 202.348 91.05H196.75ZM211.616 96.216C213.074 96.18 214.298 95.748 215.252 94.92C216.206 94.11 216.674 93.03 216.674 91.68C216.674 90.33 216.206 89.25 215.252 88.422C214.298 87.612 213.074 87.18 211.616 87.144V83.4H210.176V87.144C208.718 87.18 207.512 87.612 206.558 88.422C205.604 89.25 205.118 90.33 205.118 91.68C205.118 93.03 205.604 94.11 206.558 94.92C207.512 95.748 208.718 96.18 210.176 96.216V99.96H211.616V96.216ZM207.548 89.322C208.196 88.746 209.078 88.44 210.176 88.404V94.956C209.078 94.92 208.196 94.614 207.548 94.02C206.882 93.444 206.558 92.67 206.558 91.68C206.558 90.69 206.882 89.916 207.548 89.322ZM211.616 88.404C213.83 88.476 215.234 89.718 215.234 91.68C215.234 93.642 213.83 94.884 211.616 94.956V88.404ZM219.495 94.992C220.413 95.802 221.493 96.216 222.735 96.216C223.995 96.216 225.075 95.802 225.993 94.992C226.893 94.182 227.343 93.084 227.343 91.68C227.343 90.276 226.893 89.16 225.993 88.35C225.075 87.54 223.995 87.144 222.735 87.144C221.493 87.144 220.413 87.54 219.495 88.35C218.577 89.16 218.127 90.276 218.127 91.68C218.127 93.084 218.577 94.182 219.495 94.992ZM225.003 93.984C224.409 94.56 223.653 94.848 222.735 94.848C221.817 94.848 221.061 94.56 220.467 93.984C219.873 93.426 219.567 92.652 219.567 91.68C219.567 90.708 219.873 89.934 220.467 89.358C221.061 88.8 221.817 88.512 222.735 88.512C223.653 88.512 224.409 88.8 225.003 89.358C225.597 89.934 225.903 90.708 225.903 91.68C225.903 92.652 225.597 93.426 225.003 93.984ZM230.848 92.346H235.852V96H237.292V87.36H235.852V91.014H230.848V87.36H229.408V96H230.848V92.346ZM7.848 114.682V121H9.288V112.36H8.064L2.772 118.678V112.36H1.332V121H2.556L7.848 114.682ZM17.8716 113.692H22.8756V121H24.3156V112.36H16.4316V121H17.8716V113.692ZM28.2745 112.36H26.9785V124.96H28.4185V119.704C29.2825 120.712 30.3985 121.216 31.7665 121.216C33.0085 121.216 34.0345 120.784 34.8625 119.92C35.6725 119.056 36.0865 117.976 36.0865 116.68C36.0865 115.384 35.6725 114.304 34.8625 113.44C34.0345 112.576 33.0085 112.144 31.7665 112.144C30.4165 112.144 29.2465 112.702 28.2745 113.8V112.36ZM33.7825 119.002C33.1885 119.596 32.4685 119.884 31.6045 119.884C30.1465 119.884 28.9405 118.966 28.4185 117.76V115.6C28.9405 114.394 30.1465 113.476 31.6045 113.476C32.4685 113.476 33.1885 113.764 33.7825 114.358C34.3585 114.952 34.6465 115.726 34.6465 116.68C34.6465 117.634 34.3585 118.408 33.7825 119.002ZM44.6742 114.682V121H46.1142V112.36H44.8902L39.5982 118.678V112.36H38.1582V121H39.3822L44.6742 114.682ZM49.3154 121H56.8394V123.34H58.2434V119.704H56.9834V112.36H50.5394C50.5754 115.456 50.0894 117.904 49.0634 119.704H47.9114V123.34H49.3154V121ZM55.5434 113.656V119.704H50.6294C51.4394 118.03 51.8714 116.014 51.9254 113.656H55.5434ZM60.1573 112.36H58.6273L62.7313 121.018L62.4073 121.81C61.8493 123.214 61.0933 123.916 60.1753 123.916C59.9233 123.916 59.6713 123.88 59.4193 123.808V125.05C59.7253 125.14 60.0313 125.176 60.3553 125.176C61.7053 125.176 62.7853 124.222 63.6133 122.296L67.8613 112.36H66.3313L63.4153 119.362L60.1573 112.36ZM70.8328 114.484L73.6408 118.75H74.7208L77.5288 114.484V121H78.8968V112.36H77.3308L74.1808 117.148L71.0308 112.36H69.4648V121H70.8328V114.484ZM88.5786 115.816C88.5786 113.44 87.1746 112.144 84.8166 112.144C83.7546 112.144 82.6566 112.342 81.5226 112.72V114.124C82.5306 113.692 83.5746 113.476 84.6726 113.476C86.2386 113.476 87.1386 114.322 87.1386 115.636V115.942C86.3286 115.762 85.5366 115.672 84.7446 115.672C83.6646 115.672 82.7466 115.906 81.9906 116.356C81.2166 116.824 80.8386 117.562 80.8386 118.588C80.8386 119.434 81.1446 120.082 81.7386 120.532C82.3326 120.982 83.0346 121.216 83.8806 121.216C85.1946 121.216 86.3286 120.838 87.2466 120.064C87.4806 120.766 88.0026 121.108 88.8306 121.108C89.1906 121.108 89.5506 121.036 89.9106 120.91V119.74C89.6586 119.83 89.4426 119.866 89.2446 119.866C88.7946 119.866 88.5786 119.65 88.5786 119.2V115.816ZM82.3146 118.516C82.3146 117.364 83.4846 116.878 84.9426 116.878C85.5906 116.878 86.3286 116.968 87.1386 117.13V118.714C86.3646 119.56 85.3746 119.974 84.1866 119.974C83.1606 119.974 82.3146 119.47 82.3146 118.516ZM97.953 108.976C96.351 110.038 94.515 110.038 92.913 108.976V110.272C93.615 110.776 94.461 111.028 95.433 111.028C96.405 111.028 97.251 110.776 97.953 110.272V108.976ZM97.971 114.682V121H99.411V112.36H98.187L92.895 118.678V112.36H91.455V121H92.679L97.971 114.682ZM105.672 113.692H108.84V112.36H101.046V113.692H104.232V121H105.672V113.692ZM109.599 116.68C109.599 118.138 110.049 119.272 110.967 120.046C111.885 120.82 113.019 121.216 114.387 121.216C115.629 121.216 116.637 121 117.447 120.586V119.182C116.601 119.65 115.665 119.884 114.603 119.884C112.713 119.884 111.201 119.02 111.039 117.31H117.915C118.563 114.88 117.123 112.126 113.901 112.144C112.767 112.144 111.777 112.54 110.913 113.35C110.031 114.16 109.599 115.258 109.599 116.68ZM111.039 116.05C111.129 114.448 112.425 113.476 113.991 113.476C116.187 113.476 116.763 115.132 116.637 116.05H111.039ZM125.942 117.346H130.946V121H132.386V112.36H130.946V116.014H125.942V112.36H124.502V121H125.942V117.346ZM142.069 115.816C142.069 113.44 140.665 112.144 138.307 112.144C137.245 112.144 136.147 112.342 135.013 112.72V114.124C136.021 113.692 137.065 113.476 138.163 113.476C139.729 113.476 140.629 114.322 140.629 115.636V115.942C139.819 115.762 139.027 115.672 138.235 115.672C137.155 115.672 136.237 115.906 135.481 116.356C134.707 116.824 134.329 117.562 134.329 118.588C134.329 119.434 134.635 120.082 135.229 120.532C135.823 120.982 136.525 121.216 137.371 121.216C138.685 121.216 139.819 120.838 140.737 120.064C140.971 120.766 141.493 121.108 142.321 121.108C142.681 121.108 143.041 121.036 143.401 120.91V119.74C143.149 119.83 142.933 119.866 142.735 119.866C142.285 119.866 142.069 119.65 142.069 119.2V115.816ZM135.805 118.516C135.805 117.364 136.975 116.878 138.433 116.878C139.081 116.878 139.819 116.968 140.629 117.13V118.714C139.855 119.56 138.865 119.974 137.677 119.974C136.651 119.974 135.805 119.47 135.805 118.516ZM145.485 121H153.009V123.34H154.413V119.704H153.153V112.36H146.709C146.745 115.456 146.259 117.904 145.233 119.704H144.081V123.34H145.485V121ZM151.713 113.656V119.704H146.799C147.609 118.03 148.041 116.014 148.095 113.656H151.713ZM155.566 116.68C155.566 118.138 156.016 119.272 156.934 120.046C157.852 120.82 158.986 121.216 160.354 121.216C161.596 121.216 162.604 121 163.414 120.586V119.182C162.568 119.65 161.632 119.884 160.57 119.884C158.68 119.884 157.168 119.02 157.006 117.31H163.882C164.53 114.88 163.09 112.126 159.868 112.144C158.734 112.144 157.744 112.54 156.88 113.35C155.998 114.16 155.566 115.258 155.566 116.68ZM157.006 116.05C157.096 114.448 158.392 113.476 159.958 113.476C162.154 113.476 162.73 115.132 162.604 116.05H157.006ZM174.504 116.662L177.546 112.36H175.944L173.316 116.05H172.002V112.36H170.562V116.05H169.248L166.62 112.36H165.018L168.06 116.662L164.622 121H166.242L169.176 117.382H170.562V121H172.002V117.382H173.388L176.322 121H177.942L174.504 116.662ZM180.838 117.346H185.842V121H187.282V112.36H185.842V116.014H180.838V112.36H179.398V121H180.838V117.346ZM194.049 121C196.119 121 197.397 119.83 197.397 118.192C197.397 116.554 196.119 115.384 194.049 115.384H191.385V112.36H189.945V121H194.049ZM193.869 116.68C195.165 116.68 195.939 117.184 195.939 118.192C195.939 119.2 195.165 119.704 193.869 119.704H191.385V116.68H193.869ZM200.511 112.36H199.071V121H200.511V112.36ZM209.68 108.976C208.078 110.038 206.242 110.038 204.64 108.976V110.272C205.342 110.776 206.188 111.028 207.16 111.028C208.132 111.028 208.978 110.776 209.68 110.272V108.976ZM209.698 114.682V121H211.138V112.36H209.914L204.622 118.678V112.36H203.182V121H204.406L209.698 114.682ZM219.721 113.692H224.725V121H226.165V112.36H218.281V121H219.721V113.692ZM235.848 115.816C235.848 113.44 234.444 112.144 232.086 112.144C231.024 112.144 229.926 112.342 228.792 112.72V114.124C229.8 113.692 230.844 113.476 231.942 113.476C233.508 113.476 234.408 114.322 234.408 115.636V115.942C233.598 115.762 232.806 115.672 232.014 115.672C230.934 115.672 230.016 115.906 229.26 116.356C228.486 116.824 228.108 117.562 228.108 118.588C228.108 119.434 228.414 120.082 229.008 120.532C229.602 120.982 230.304 121.216 231.15 121.216C232.464 121.216 233.598 120.838 234.516 120.064C234.75 120.766 235.272 121.108 236.1 121.108C236.46 121.108 236.82 121.036 237.18 120.91V119.74C236.928 119.83 236.712 119.866 236.514 119.866C236.064 119.866 235.848 119.65 235.848 119.2V115.816ZM229.584 118.516C229.584 117.364 230.754 116.878 232.212 116.878C232.86 116.878 233.598 116.968 234.408 117.13V118.714C233.634 119.56 232.644 119.974 231.456 119.974C230.43 119.974 229.584 119.47 229.584 118.516ZM240.021 112.36H238.725V124.96H240.165V119.704C241.029 120.712 242.145 121.216 243.513 121.216C244.755 121.216 245.781 120.784 246.609 119.92C247.419 119.056 247.833 117.976 247.833 116.68C247.833 115.384 247.419 114.304 246.609 113.44C245.781 112.576 244.755 112.144 243.513 112.144C242.163 112.144 240.993 112.702 240.021 113.8V112.36ZM245.529 119.002C244.935 119.596 244.215 119.884 243.351 119.884C241.893 119.884 240.687 118.966 240.165 117.76V115.6C240.687 114.394 241.893 113.476 243.351 113.476C244.215 113.476 244.935 113.764 245.529 114.358C246.105 114.952 246.393 115.726 246.393 116.68C246.393 117.634 246.105 118.408 245.529 119.002ZM250.678 119.992C251.596 120.802 252.676 121.216 253.918 121.216C255.178 121.216 256.258 120.802 257.176 119.992C258.076 119.182 258.526 118.084 258.526 116.68C258.526 115.276 258.076 114.16 257.176 113.35C256.258 112.54 255.178 112.144 253.918 112.144C252.676 112.144 251.596 112.54 250.678 113.35C249.76 114.16 249.31 115.276 249.31 116.68C249.31 118.084 249.76 119.182 250.678 119.992ZM256.186 118.984C255.592 119.56 254.836 119.848 253.918 119.848C253 119.848 252.244 119.56 251.65 118.984C251.056 118.426 250.75 117.652 250.75 116.68C250.75 115.708 251.056 114.934 251.65 114.358C252.244 113.8 253 113.512 253.918 113.512C254.836 113.512 255.592 113.8 256.186 114.358C256.78 114.934 257.086 115.708 257.086 116.68C257.086 117.652 256.78 118.426 256.186 118.984ZM266.933 113.692V121H268.373V112.36H262.019C261.857 117.382 261.263 119.92 259.823 119.92C259.625 119.92 259.445 119.884 259.247 119.812V120.946C259.589 121.072 259.949 121.144 260.291 121.144C261.155 121.144 261.839 120.622 262.289 119.812C262.505 119.398 262.685 118.876 262.847 118.21C263.153 116.914 263.297 115.582 263.423 113.692H266.933ZM275.137 121C277.207 121 278.485 119.83 278.485 118.192C278.485 116.554 277.207 115.384 275.137 115.384H272.473V112.36H271.033V121H275.137ZM274.957 116.68C276.253 116.68 277.027 117.184 277.027 118.192C277.027 119.2 276.253 119.704 274.957 119.704H272.473V116.68H274.957Z" fill="#003B55"/>
</svg>
