<svg width="28" height="28" viewBox="0 0 28 28" fill="none" xmlns="http://www.w3.org/2000/svg">
<path d="M4.375 3.5C2.93562 3.5 1.75 4.68562 1.75 6.125V20.7083C1.75 22.792 3.45804 24.5 5.54167 24.5H22.4583C24.542 24.5 26.25 22.792 26.25 20.7083V11.9583C26.25 10.519 25.0644 9.33333 23.625 9.33333H22.75V6.125C22.75 4.68562 21.5644 3.5 20.125 3.5H4.375ZM4.375 5.25H20.125C20.6188 5.25 21 5.63121 21 6.125V10.0648C20.9846 10.1587 20.9846 10.2545 21 10.3485V20.125C20.9984 20.2409 21.0198 20.3561 21.063 20.4637C21.1063 20.5713 21.1704 20.6692 21.2519 20.7518C21.3333 20.8343 21.4303 20.8999 21.5373 20.9447C21.6442 20.9894 21.759 21.0125 21.875 21.0125C21.991 21.0125 22.1058 20.9894 22.2127 20.9447C22.3197 20.8999 22.4167 20.8343 22.4981 20.7518C22.5796 20.6692 22.6437 20.5713 22.687 20.4637C22.7302 20.3561 22.7516 20.2409 22.75 20.125V11.0833H23.625C24.1188 11.0833 24.5 11.4645 24.5 11.9583V20.7083C24.5 21.8459 23.5959 22.75 22.4583 22.75H5.54167C4.40413 22.75 3.5 21.8459 3.5 20.7083V6.125C3.5 5.63121 3.88121 5.25 4.375 5.25ZM6.125 8.75C6.00905 8.74836 5.89393 8.76978 5.78634 8.81302C5.67874 8.85626 5.58081 8.92045 5.49824 9.00186C5.41566 9.08327 5.35009 9.18029 5.30534 9.28726C5.26058 9.39424 5.23754 9.50904 5.23754 9.625C5.23754 9.74096 5.26058 9.85576 5.30534 9.96274C5.35009 10.0697 5.41566 10.1667 5.49824 10.2481C5.58081 10.3296 5.67874 10.3937 5.78634 10.437C5.89393 10.4802 6.00905 10.5016 6.125 10.5H18.375C18.4909 10.5016 18.6061 10.4802 18.7137 10.437C18.8213 10.3937 18.9192 10.3296 19.0018 10.2481C19.0843 10.1667 19.1499 10.0697 19.1947 9.96274C19.2394 9.85576 19.2625 9.74096 19.2625 9.625C19.2625 9.50904 19.2394 9.39424 19.1947 9.28726C19.1499 9.18029 19.0843 9.08327 19.0018 9.00186C18.9192 8.92045 18.8213 8.85626 18.7137 8.81302C18.6061 8.76978 18.4909 8.74836 18.375 8.75H6.125ZM6.125 13.4167C5.89294 13.4167 5.6704 13.5089 5.50631 13.673C5.34222 13.8371 5.25002 14.0596 5.25 14.2917V18.375C5.25002 18.6071 5.34222 18.8296 5.50631 18.9937C5.6704 19.1578 5.89294 19.25 6.125 19.25H10.2083C10.4404 19.25 10.6629 19.1578 10.827 18.9937C10.9911 18.8296 11.0833 18.6071 11.0833 18.375V14.2917C11.0833 14.0596 10.9911 13.8371 10.827 13.673C10.6629 13.5089 10.4404 13.4167 10.2083 13.4167H6.125ZM13.7083 13.4167C13.5924 13.415 13.4773 13.4364 13.3697 13.4797C13.2621 13.5229 13.1641 13.5871 13.0816 13.6685C12.999 13.7499 12.9334 13.847 12.8887 13.9539C12.8439 14.0609 12.8209 14.1757 12.8209 14.2917C12.8209 14.4076 12.8439 14.5224 12.8887 14.6294C12.9334 14.7364 12.999 14.8334 13.0816 14.9148C13.1641 14.9962 13.2621 15.0604 13.3697 15.1036C13.4773 15.1469 13.5924 15.1683 13.7083 15.1667H18.375C18.4909 15.1683 18.6061 15.1469 18.7137 15.1036C18.8213 15.0604 18.9192 14.9962 19.0018 14.9148C19.0843 14.8334 19.1499 14.7364 19.1947 14.6294C19.2394 14.5224 19.2625 14.4076 19.2625 14.2917C19.2625 14.1757 19.2394 14.0609 19.1947 13.9539C19.1499 13.847 19.0843 13.7499 19.0018 13.6685C18.9192 13.5871 18.8213 13.5229 18.7137 13.4797C18.6061 13.4364 18.4909 13.415 18.375 13.4167H13.7083ZM7 15.1667H9.33333V17.5H7V15.1667ZM13.7083 17.5C13.5924 17.4984 13.4773 17.5198 13.3697 17.563C13.2621 17.6063 13.1641 17.6704 13.0816 17.7519C12.999 17.8333 12.9334 17.9303 12.8887 18.0373C12.8439 18.1442 12.8209 18.259 12.8209 18.375C12.8209 18.491 12.8439 18.6058 12.8887 18.7127C12.9334 18.8197 12.999 18.9167 13.0816 18.9981C13.1641 19.0796 13.2621 19.1437 13.3697 19.187C13.4773 19.2302 13.5924 19.2516 13.7083 19.25H18.375C18.4909 19.2516 18.6061 19.2302 18.7137 19.187C18.8213 19.1437 18.9192 19.0796 19.0018 18.9981C19.0843 18.9167 19.1499 18.8197 19.1947 18.7127C19.2394 18.6058 19.2625 18.491 19.2625 18.375C19.2625 18.259 19.2394 18.1442 19.1947 18.0373C19.1499 17.9303 19.0843 17.8333 19.0018 17.7519C18.9192 17.6704 18.8213 17.6063 18.7137 17.563C18.6061 17.5198 18.4909 17.4984 18.375 17.5H13.7083Z" fill="#FC3D48"/>
</svg>
