<svg width="16" height="16" viewBox="0 0 16 16" fill="none" xmlns="http://www.w3.org/2000/svg">
<g opacity="0.3">
<path d="M8.00008 2.66666C3.42808 2.66666 1.25722 6.58576 0.730551 7.70442C0.642551 7.89109 0.642551 8.1076 0.730551 8.29427C1.25722 9.4136 3.42808 13.3333 8.00008 13.3333C12.5561 13.3333 14.7284 9.44196 15.2644 8.30729C15.3564 8.11196 15.3564 7.88804 15.2644 7.69271C14.7284 6.55804 12.5561 2.66666 8.00008 2.66666ZM8.00008 4.66666C9.84075 4.66666 11.3334 6.15933 11.3334 8C11.3334 9.84066 9.84075 11.3333 8.00008 11.3333C6.15942 11.3333 4.66675 9.84066 4.66675 8C4.66675 6.15933 6.15942 4.66666 8.00008 4.66666ZM8.00008 6C7.46965 6 6.96094 6.21071 6.58587 6.58578C6.2108 6.96086 6.00008 7.46956 6.00008 8C6.00008 8.53043 6.2108 9.03914 6.58587 9.41421C6.96094 9.78928 7.46965 10 8.00008 10C8.53052 10 9.03922 9.78928 9.4143 9.41421C9.78937 9.03914 10.0001 8.53043 10.0001 8C10.0001 7.46956 9.78937 6.96086 9.4143 6.58578C9.03922 6.21071 8.53052 6 8.00008 6Z" fill="#003B55"/>
</g>
</svg>
