<svg width="28" height="28" viewBox="0 0 28 28" fill="none" xmlns="http://www.w3.org/2000/svg">
<path d="M14.0002 3.5C12.9064 3.5 11.9753 3.94166 11.3774 4.61426C10.7796 5.28685 10.5002 6.14931 10.5002 7C10.5002 7.85069 10.7796 8.71315 11.3774 9.38574C11.9753 10.0583 12.9064 10.5 14.0002 10.5C15.0939 10.5 16.025 10.0583 16.6229 9.38574C17.2207 8.71315 17.5002 7.85069 17.5002 7C17.5002 6.14931 17.2207 5.28685 16.6229 4.61426C16.025 3.94166 15.0939 3.5 14.0002 3.5ZM6.41683 4.66667C5.51752 4.66667 4.73225 5.03541 4.23161 5.59863C3.73097 6.16185 3.50016 6.87847 3.50016 7.58333C3.50016 8.28819 3.73097 9.00481 4.23161 9.56803C4.73225 10.1313 5.51752 10.5 6.41683 10.5C7.31613 10.5 8.10141 10.1313 8.60205 9.56803C9.10269 9.00481 9.3335 8.28819 9.3335 7.58333C9.3335 6.87847 9.10269 6.16185 8.60205 5.59863C8.10141 5.03541 7.31613 4.66667 6.41683 4.66667ZM21.5835 4.66667C20.6842 4.66667 19.8989 5.03541 19.3983 5.59863C18.8976 6.16185 18.6668 6.87847 18.6668 7.58333C18.6668 8.28819 18.8976 9.00481 19.3983 9.56803C19.8989 10.1313 20.6842 10.5 21.5835 10.5C22.4828 10.5 23.2681 10.1313 23.7687 9.56803C24.2694 9.00481 24.5002 8.28819 24.5002 7.58333C24.5002 6.87847 24.2694 6.16185 23.7687 5.59863C23.2681 5.03541 22.4828 4.66667 21.5835 4.66667ZM14.0002 5.25C14.6564 5.25 15.0378 5.46459 15.3149 5.77637C15.5921 6.08815 15.7502 6.53819 15.7502 7C15.7502 7.46181 15.5921 7.91185 15.3149 8.22363C15.0378 8.53541 14.6564 8.75 14.0002 8.75C13.3439 8.75 12.9625 8.53541 12.6854 8.22363C12.4082 7.91185 12.2502 7.46181 12.2502 7C12.2502 6.53819 12.4082 6.08815 12.6854 5.77637C12.9625 5.46459 13.3439 5.25 14.0002 5.25ZM6.41683 6.41667C6.87863 6.41667 7.11419 6.55834 7.29411 6.76074C7.47402 6.96315 7.5835 7.26736 7.5835 7.58333C7.5835 7.89931 7.47402 8.20352 7.29411 8.40592C7.11419 8.60833 6.87863 8.75 6.41683 8.75C5.95502 8.75 5.71946 8.60833 5.53955 8.40592C5.35964 8.20352 5.25016 7.89931 5.25016 7.58333C5.25016 7.26736 5.35964 6.96315 5.53955 6.76074C5.71946 6.55834 5.95502 6.41667 6.41683 6.41667ZM21.5835 6.41667C22.0453 6.41667 22.2809 6.55834 22.4608 6.76074C22.6407 6.96315 22.7502 7.26736 22.7502 7.58333C22.7502 7.89931 22.6407 8.20352 22.4608 8.40592C22.2809 8.60833 22.0453 8.75 21.5835 8.75C21.1217 8.75 20.8861 8.60833 20.7062 8.40592C20.5263 8.20352 20.4168 7.89931 20.4168 7.58333C20.4168 7.26736 20.5263 6.96315 20.7062 6.76074C20.8861 6.55834 21.1217 6.41667 21.5835 6.41667ZM4.37516 11.6667C3.24933 11.6667 2.3335 12.5825 2.3335 13.7083V17.5C2.3335 20.0725 4.42766 22.1667 7.00016 22.1667C7.41433 22.1667 7.81715 22.1144 8.20215 22.0094C7.95715 21.4844 7.77609 20.9238 7.67692 20.3346C7.46109 20.3871 7.2335 20.4167 7.00016 20.4167C5.39016 20.4167 4.0835 19.11 4.0835 17.5V13.7083C4.0835 13.545 4.21183 13.4167 4.37516 13.4167H7.60058C7.65892 12.7517 7.91586 12.1508 8.31836 11.6667H4.37516ZM10.7918 11.6667C9.67477 11.6667 8.75016 12.5913 8.75016 13.7083V19.25C8.75016 22.1391 11.1111 24.5 14.0002 24.5C16.8892 24.5 19.2502 22.1391 19.2502 19.25V13.7083C19.2502 12.5913 18.3256 11.6667 17.2085 11.6667H10.7918ZM19.682 11.6667C20.0845 12.1508 20.3414 12.7517 20.3997 13.4167H23.6252C23.7885 13.4167 23.9168 13.545 23.9168 13.7083V17.5C23.9168 19.11 22.6102 20.4167 21.0002 20.4167C20.7668 20.4167 20.5392 20.3871 20.3234 20.3346C20.2242 20.9238 20.0432 21.4844 19.7982 22.0094C20.1832 22.1144 20.586 22.1667 21.0002 22.1667C23.5727 22.1667 25.6668 20.0725 25.6668 17.5V13.7083C25.6668 12.5825 24.751 11.6667 23.6252 11.6667H19.682ZM10.7918 13.4167H17.2085C17.3806 13.4167 17.5002 13.5362 17.5002 13.7083V19.25C17.5002 21.1932 15.9434 22.75 14.0002 22.75C12.0569 22.75 10.5002 21.1932 10.5002 19.25V13.7083C10.5002 13.5362 10.6197 13.4167 10.7918 13.4167Z" fill="#FC3D48"/>
</svg>
