<svg width="16" height="33" viewBox="0 0 16 33" fill="none" xmlns="http://www.w3.org/2000/svg">
<path d="M7.98442 26.3013C9.0344 26.3013 9.94743 26.1643 10.7235 25.8904C11.5087 25.6165 12.1707 25.2513 12.7093 24.7948C13.2572 24.3383 13.6908 23.8361 14.0104 23.2883C14.33 22.7405 14.5445 22.1972 14.6541 21.6586L14.6952 21.5079H11.0248L10.9974 21.5901C10.9061 21.864 10.7326 22.1333 10.477 22.3981C10.2213 22.6629 9.89265 22.882 9.49092 23.0555C9.08918 23.229 8.61441 23.3157 8.06659 23.3157C7.37269 23.3157 6.77466 23.1651 6.2725 22.8638C5.77033 22.5533 5.38229 22.1105 5.10839 21.5353C4.84361 20.9601 4.71122 20.2662 4.71122 19.4536V17.906C4.71122 17.066 4.84361 16.3584 5.10839 15.7832C5.38229 15.1989 5.75664 14.7561 6.23141 14.4548C6.71531 14.1535 7.2677 14.0028 7.88855 14.0028C8.50941 14.0028 9.05266 14.1489 9.51831 14.4411C9.99308 14.7332 10.3629 15.1715 10.6276 15.7558C10.8924 16.331 11.0248 17.0478 11.0248 17.906V19.4399L12.9285 17.0843H2.72539V19.6042H14.8184V18.3717C14.8184 16.8926 14.5308 15.6006 13.9556 14.4959C13.3895 13.3911 12.5815 12.5374 11.5315 11.9348C10.4907 11.3231 9.25353 11.0172 7.82008 11.0172C6.38662 11.0172 5.14034 11.3322 4.08123 11.9622C3.03125 12.5831 2.21409 13.4687 1.62975 14.6191C1.05455 15.7604 0.766943 17.1117 0.766943 18.673V18.6867C0.766943 20.2479 1.05455 21.5992 1.62975 22.7405C2.21409 23.8818 3.04495 24.7628 4.12232 25.3837C5.19969 25.9954 6.48706 26.3013 7.98442 26.3013Z" fill="#FC3D48"/>
<path d="M7.98553 9.93373L7.84158 9.82023C7.61549 9.64201 7.31169 9.44529 6.96109 9.21747C5.56838 8.3129 3.46387 6.94595 3.46387 4.76607C3.46387 3.42686 4.61636 2.33734 6.03291 2.33734C6.79064 2.33734 7.4998 2.65091 7.98553 3.18895C8.47125 2.65091 9.18129 2.33734 9.93814 2.33734C11.3547 2.33734 12.5072 3.42686 12.5072 4.76607C12.5072 6.94595 10.4027 8.3129 9.00996 9.21747C8.65848 9.44529 8.35556 9.64201 8.12948 9.82023L7.98553 9.93373Z" fill="#FC3D48"/>
</svg>
