<svg width="166" height="57" viewBox="0 0 166 57" fill="none" xmlns="http://www.w3.org/2000/svg">
<path d="M2.8125 46H9.11719V23.125H12.3984L5.32031 13.1172L18.4453 46H22.8984L36.0234 13.1172L28.9453 23.125H32.2266V46H38.5312V12.1797H30.3516L20.7422 36.4844H20.6016L10.9922 12.1797H2.8125V46ZM55.0078 46.5156C56.8047 46.5156 58.3672 46.2812 59.6953 45.8125C61.0391 45.3438 62.1719 44.7188 63.0938 43.9375C64.0312 43.1562 64.7734 42.2969 65.3203 41.3594C65.8672 40.4219 66.2344 39.4922 66.4219 38.5703L66.4922 38.3125H60.2109L60.1641 38.4531C60.0078 38.9219 59.7109 39.3828 59.2734 39.8359C58.8359 40.2891 58.2734 40.6641 57.5859 40.9609C56.8984 41.2578 56.0859 41.4062 55.1484 41.4062C53.9609 41.4062 52.9375 41.1484 52.0781 40.6328C51.2188 40.1016 50.5547 39.3438 50.0859 38.3594C49.6328 37.375 49.4062 36.1875 49.4062 34.7969V32.1484C49.4062 30.7109 49.6328 29.5 50.0859 28.5156C50.5547 27.5156 51.1953 26.7578 52.0078 26.2422C52.8359 25.7266 53.7812 25.4688 54.8438 25.4688C55.9062 25.4688 56.8359 25.7188 57.6328 26.2188C58.4453 26.7188 59.0781 27.4688 59.5312 28.4688C59.9844 29.4531 60.2109 30.6797 60.2109 32.1484V34.7734L63.4688 30.7422H46.0078V35.0547H66.7031V32.9453C66.7031 30.4141 66.2109 28.2031 65.2266 26.3125C64.2578 24.4219 62.875 22.9609 61.0781 21.9297C59.2969 20.8828 57.1797 20.3594 54.7266 20.3594C52.2734 20.3594 50.1406 20.8984 48.3281 21.9766C46.5312 23.0391 45.1328 24.5547 44.1328 26.5234C43.1484 28.4766 42.6562 30.7891 42.6562 33.4609V33.4844C42.6562 36.1562 43.1484 38.4688 44.1328 40.4219C45.1328 42.375 46.5547 43.8828 48.3984 44.9453C50.2422 45.9922 52.4453 46.5156 55.0078 46.5156ZM70.2422 46H77.0859V31.5625C77.0859 30.4531 77.2891 29.4844 77.6953 28.6562C78.1172 27.8281 78.7031 27.1875 79.4531 26.7344C80.2031 26.2656 81.0859 26.0312 82.1016 26.0312C83.6328 26.0312 84.7812 26.4844 85.5469 27.3906C86.3281 28.2812 86.7188 29.5469 86.7188 31.1875V46H93.5625V29.7812C93.5625 26.8281 92.8047 24.5234 91.2891 22.8672C89.7891 21.1953 87.6562 20.3594 84.8906 20.3594C83 20.3594 81.4141 20.7734 80.1328 21.6016C78.8516 22.4297 77.8828 23.5625 77.2266 25H77.0859V20.875H70.2422V46ZM107.883 46.5156C108.602 46.5156 109.234 46.4844 109.781 46.4219C110.344 46.375 110.812 46.3203 111.188 46.2578V41.2422C110.984 41.2734 110.766 41.3047 110.531 41.3359C110.297 41.3516 110.023 41.3594 109.711 41.3594C108.68 41.3594 107.898 41.1328 107.367 40.6797C106.852 40.2109 106.594 39.3906 106.594 38.2188V26.0312H111.188V20.875H106.594V14.7344H99.6797V20.875H96.1875V26.0312H99.6797V38.9688C99.6797 41.6562 100.352 43.5859 101.695 44.7578C103.039 45.9297 105.102 46.5156 107.883 46.5156ZM123.516 46.5156C125.422 46.5156 127.016 46.1016 128.297 45.2734C129.578 44.4453 130.539 43.3047 131.18 41.8516H131.32V46H138.164V20.875H131.32V35.3125C131.32 36.3906 131.109 37.3516 130.688 38.1953C130.281 39.0234 129.703 39.6719 128.953 40.1406C128.219 40.6094 127.336 40.8438 126.305 40.8438C124.773 40.8438 123.617 40.3906 122.836 39.4844C122.07 38.5781 121.688 37.3047 121.688 35.6641V20.875H114.844V37.0938C114.844 39.0469 115.18 40.7266 115.852 42.1328C116.539 43.5391 117.523 44.625 118.805 45.3906C120.102 46.1406 121.672 46.5156 123.516 46.5156ZM152.953 46.5156C155.109 46.5156 157.008 46.1797 158.648 45.5078C160.305 44.8203 161.602 43.8672 162.539 42.6484C163.477 41.4297 163.945 40 163.945 38.3594V38.3359C163.945 36.4922 163.367 35.0234 162.211 33.9297C161.07 32.8359 159.18 32.0156 156.539 31.4688L152.273 30.5547C151.008 30.2891 150.125 29.9375 149.625 29.5C149.125 29.0625 148.875 28.5234 148.875 27.8828V27.8594C148.875 27.3125 149.031 26.8438 149.344 26.4531C149.656 26.0469 150.102 25.7344 150.68 25.5156C151.258 25.2969 151.938 25.1875 152.719 25.1875C153.984 25.1875 154.977 25.4922 155.695 26.1016C156.43 26.6953 156.852 27.4453 156.961 28.3516L156.984 28.5391H163.289V28.3047C163.242 26.8359 162.797 25.5 161.953 24.2969C161.125 23.0938 159.93 22.1406 158.367 21.4375C156.82 20.7188 154.938 20.3594 152.719 20.3594C150.594 20.3594 148.734 20.6875 147.141 21.3438C145.562 21.9844 144.344 22.8906 143.484 24.0625C142.625 25.2344 142.195 26.625 142.195 28.2344V28.2578C142.195 30.1328 142.805 31.6797 144.023 32.8984C145.258 34.1016 147.094 34.9609 149.531 35.4766L153.797 36.3672C155.031 36.6484 155.891 36.9922 156.375 37.3984C156.859 37.8047 157.102 38.3438 157.102 39.0156V39.0391C157.102 39.5859 156.93 40.0547 156.586 40.4453C156.258 40.8359 155.789 41.1406 155.18 41.3594C154.57 41.5625 153.828 41.6641 152.953 41.6641C151.594 41.6641 150.531 41.3906 149.766 40.8438C149 40.2969 148.508 39.5312 148.289 38.5469L148.242 38.3359H141.562L141.586 38.5469C141.773 40.125 142.32 41.5156 143.227 42.7188C144.148 43.9062 145.422 44.8359 147.047 45.5078C148.672 46.1797 150.641 46.5156 152.953 46.5156Z" fill="#FC3D48"/>
<path d="M54.7381 17L54.4917 16.8058C54.1048 16.5008 53.5849 16.1641 52.9849 15.7742C50.6015 14.2262 47 11.8869 47 8.15637C47 5.86454 48.9723 4 51.3965 4C52.6932 4 53.9069 4.53663 54.7381 5.45739C55.5693 4.53663 56.7845 4 58.0797 4C60.5039 4 62.4762 5.86454 62.4762 8.15637C62.4762 11.8869 58.8747 14.2262 56.4913 15.7742C55.8897 16.1641 55.3714 16.5008 54.9844 16.8058L54.7381 17Z" fill="#FC3D48"/>
</svg>
